<svg width="184" height="46" viewBox="0 0 184 46" fill="none" xmlns="http://www.w3.org/2000/svg">
<g clip-path="url(#clip0_2887_26446)">
<path d="M184 9.659C183.841 8.66219 183.4 7.40265 182.626 6.51403C181.677 5.40904 180.44 4.96086 178.968 4.96086C176.804 4.96086 175.468 5.90358 174.542 7.18629C173.54 8.6081 173.153 10.2694 173.153 12.0931C173.153 14.4112 173.836 16.6057 175.157 17.8344C175.947 18.5607 177.161 19.1866 178.846 19.1866C180.296 19.1866 181.533 18.723 182.482 17.7339C183.249 16.9303 183.825 15.7248 184.008 14.4112L182.11 14.0558C182.004 14.8285 181.715 15.663 181.245 16.2812C180.645 17.0539 179.894 17.4094 178.899 17.4094C177.586 17.4094 176.789 16.7062 176.349 16.0417C176.189 15.8176 175.476 14.7049 175.476 12.124C175.476 11.0267 175.605 9.47354 176.349 8.2681C176.926 7.3022 177.768 6.73812 178.93 6.73812C180.25 6.73812 181.009 7.41038 181.381 7.94356C181.723 8.45355 182.011 9.25718 182.118 10.0067L184 9.659ZM160.318 5.22359V18.9007H162.322V12.6031H168.538V18.9007H170.542V5.22359H168.538V10.934H162.322V5.22359H160.318ZM155.422 12.1781V12.8426C155.422 13.8162 155.05 15.068 154.367 15.9335C153.653 16.8144 152.5 17.4635 151.179 17.4635C150.26 17.4635 149.623 17.2162 149.259 16.9457C148.484 16.4435 148.279 15.663 148.279 15.1299C148.279 14.4344 148.545 13.4376 149.646 12.8426C150.382 12.4408 151.596 12.1781 153.707 12.1781H155.422ZM148.469 9.00991C148.788 6.77675 151.103 6.61448 152.204 6.61448C153.152 6.61448 154.314 6.6763 154.997 7.61129C155.46 8.25265 155.521 9.17218 155.521 9.89081V10.4549H153.782C151.725 10.4549 149.623 10.4858 147.991 11.6062C147.194 12.1472 146.169 13.2212 146.169 15.068C146.169 16.4976 146.807 17.4326 147.376 17.9735C148.036 18.5839 149.114 19.1866 150.83 19.1866C153.987 19.1866 155.149 17.1467 155.521 16.3662C155.543 17.0385 155.597 17.9271 155.756 18.9084H157.866C157.6 17.703 157.525 16.7912 157.525 16.0417V10.7872C157.525 9.01764 157.494 7.13993 156.044 5.9654C154.868 4.9995 153.122 4.96859 152.226 4.96859C149.304 4.96859 147.118 5.77222 146.534 8.70082L148.469 9.00991ZM133.349 5.22359V18.9007H135.353V12.6031H141.569V18.9007H143.573V5.22359H141.569V10.934H135.353V5.22359H133.349ZM119.868 5.22359V18.9007H121.872V17.5871L126.981 10.7794C127.907 9.56627 128.089 9.11809 128.195 8.87855C128.119 9.51991 128.089 10.3467 128.089 10.8335V18.9084H130.093V5.22359H128.089V6.40585L123.056 13.1981C122.639 13.7853 122.214 14.3494 121.789 15.3153C121.842 14.3262 121.872 14.3262 121.872 13.4376V5.22359H119.868ZM109.325 4.61314H109.583C110.669 4.61314 112.217 4.7445 113.409 5.66404C114.912 6.81539 115.124 8.42264 115.124 9.60491C115.124 10.4394 115.064 12.6108 112.824 13.7621C111.671 14.3571 110.084 14.4112 109.325 14.3803V4.61314ZM107.215 14.3726C106.448 14.4035 104.862 14.3494 103.708 13.7544C101.469 12.6031 101.416 10.4317 101.416 9.59718C101.416 8.42264 101.621 6.81539 103.124 5.65631C104.315 4.7445 105.864 4.60541 106.942 4.60541H107.207V14.3726H107.215ZM107.132 0V2.68906H106.836C104.384 2.68906 102.646 3.3536 101.492 4.26541C100.201 5.31631 99.0933 7.13993 99.0933 9.55081C99.0933 12.3944 100.528 13.9476 101.021 14.4112C102.099 15.4235 103.974 16.3121 107.132 16.3121V19.1866H109.394V16.3044C112.551 16.3044 114.418 15.4158 115.504 14.4035C116.005 13.9476 117.432 12.3867 117.432 9.54309C117.432 7.1322 116.324 5.30086 115.033 4.25769C113.872 3.34588 112.134 2.68134 109.682 2.68134H109.394V0H107.132ZM85.8403 0.502268V3.88678H90.1138V18.9084H94.3265V3.88678H98.5999V0.502268H85.8403ZM70.2723 0.502268V18.9007H74.485V17.4326L79.9426 8.6081C80.1551 8.26037 80.4967 7.47993 80.6485 6.93902C80.5954 7.26356 80.5195 8.04401 80.5195 9.32673V18.9007H84.7321V0.502268H80.5195V1.82362L75.0695 10.6713C74.9101 10.934 74.5458 11.6449 74.356 12.3326C74.3788 12.0853 74.485 11.3126 74.485 10.0608V0.502268H70.2723ZM54.0971 0.502268V18.9007H58.3098V10.9726H59.8962C60.716 10.9726 61.5357 11.0267 62.0595 11.7762C62.2189 11.9926 62.4238 12.3944 62.7426 13.5226L63.2132 15.1839C63.4485 15.9876 63.7977 17.1157 64.0558 17.6489C64.5871 18.6998 65.1336 18.8853 65.4524 18.9084H69.3539C68.8605 18.3753 68.5645 17.8653 68.2457 17.0848C67.7751 15.9335 67.517 14.9444 67.1147 13.623C66.6138 11.9849 66.0824 10.509 64.8755 9.70536C64.4808 9.44263 63.9799 9.24945 63.4485 9.17991V9.07173C63.8432 9.01764 64.2911 8.85537 64.7389 8.47674C65.5055 7.80447 65.8471 6.78448 66.0824 5.95767L66.4999 4.45087C66.9781 2.75861 67.4259 1.93953 67.7144 1.45271C67.9269 1.10499 68.0787 0.834537 68.5038 0.509995H65.2095C64.7617 0.509995 64.367 0.641357 63.9191 1.15908C63.3954 1.74635 63.107 2.58088 62.8944 3.30724L62.3935 5.00722C62.0747 6.08903 61.8621 6.99311 61.0196 7.50311C60.549 7.79674 60.0404 7.85856 59.623 7.85856H58.3022V0.502268H54.0971ZM40.6848 15.5162C37.8004 16.768 35.3867 17.5176 32.1379 18.5221C28.1681 19.9053 24.5551 21.273 22.5133 24.3948C21.9136 25.3916 21.4278 26.6434 21.1925 28.0188H20.9496C20.8358 27.022 20.4714 25.8938 19.5074 24.7734C17.9438 22.633 15.4086 21.7752 13.3668 21.273L9.63228 20.1448C5.53343 18.9007 3.49161 17.6412 2.29231 16.8994C1.44218 16.3971 0.842539 16.0185 0 14.898V22.772C0 23.6452 0.242894 24.3948 0.721092 25.152C1.32074 25.6466 1.67749 26.0252 2.28472 26.3961C3.48401 27.1456 5.53343 28.2738 9.63228 29.5256L13.3592 30.6461C15.401 31.1483 17.9286 32.1451 19.4999 34.1465C20.4638 35.2669 20.8206 36.2715 20.9345 37.2683H21.1773C21.4126 35.9006 21.8984 34.7647 22.4981 33.7756C24.5399 30.6461 28.153 29.2783 32.1228 27.9029C35.3791 26.9061 37.7852 26.1566 40.6696 25.0207C42.6052 24.1552 45.1252 22.8957 45.1252 20.5234V12.6417C43.8121 14.0249 42.6128 14.7821 40.6848 15.5162ZM40.6848 3.39997C42.6204 2.52679 43.8196 1.77726 45.1328 0.525449V8.27583C45.1328 10.7717 42.6128 11.8999 40.6772 12.7731C37.7928 14.0249 35.3867 14.7821 32.1304 15.7789C28.1606 17.0307 24.5475 18.4062 22.5057 21.528C21.906 22.6407 21.4202 23.653 21.1773 25.0207H20.9345C20.8206 24.0239 20.4563 23.1507 19.4923 21.8989C17.9286 19.9053 15.3934 19.0244 13.3516 18.4062L9.61709 17.278C5.51825 16.0262 3.47642 14.9058 2.27713 14.1562C1.6699 13.7776 1.31315 13.5303 0.713502 13.0281C0.242894 12.1472 0 11.3976 0 10.5167V2.65043C0.842539 3.77087 1.44218 4.1495 2.28472 4.77541C3.48401 5.52495 5.52584 6.64539 9.62469 7.8972L13.3516 9.01764C15.3934 9.64354 17.921 10.5167 19.4923 12.5181C20.4563 13.6385 20.813 14.8903 20.9269 15.8871H21.1698C21.4051 14.5194 21.8908 13.1362 22.4905 12.1394C24.5323 9.01764 28.1454 7.6422 32.1152 6.39039C35.3867 5.27768 37.7928 4.65177 40.6848 3.39997Z" fill="white"/>
<path d="M65.581 25.1134H56.4724V30.762H61.0115C62.2564 30.762 64.4348 30.8161 65.8391 32.0447C66.7954 32.8792 67.4558 34.3706 67.4558 36.0319C67.4558 37.4228 67.008 38.9528 66.0212 40.0192C64.8523 41.2787 63.5543 41.4951 62.3095 41.4951H54.1953V23.1353H65.581V25.1134ZM56.48 39.5169H61.7933C62.5144 39.5169 63.4177 39.4705 64.1616 38.6901C64.746 38.0719 65.0345 37.0597 65.0345 36.0629C65.0345 34.9424 64.6094 34.0847 64.0553 33.5747C63.2052 32.8252 62.0438 32.7402 61.0267 32.7402H56.4876V39.5169H56.48Z" fill="white"/>
<path d="M70.1884 27.8488H72.048V30.422L72.0784 30.3911C72.6097 29.1007 73.8849 27.5784 76.1165 27.5784C77.7864 27.5784 79.0085 28.1966 79.8586 29.1547C81.0199 30.4684 81.5513 32.6397 81.5513 34.5947C81.5513 36.4183 81.0959 38.3965 80.1167 39.741C79.3956 40.7301 78.1508 41.7733 76.1165 41.7733C73.9608 41.7733 72.8526 40.6219 72.2909 39.3701H72.2074V45.9614H70.1884V27.8488ZM72.2074 36.086C72.2074 36.7815 72.3137 37.8787 73.1638 38.8446C73.9077 39.6715 74.8945 39.996 75.737 39.996C76.5112 39.996 77.6194 39.6715 78.3861 38.3887C79.0237 37.3456 79.2058 35.8388 79.2058 34.6179C79.2058 32.3461 78.6517 31.2488 78.4088 30.8702C77.665 29.6338 76.5795 29.3402 75.7522 29.3402C74.7958 29.3402 73.9988 29.6956 73.3081 30.422C72.3289 31.4884 72.1923 32.5856 72.1923 33.227V36.086H72.2074Z" fill="white"/>
<path d="M89.8476 27.5707C93.3544 27.5707 95.9504 30.1979 95.9504 34.672C95.9504 39.146 93.3544 41.7655 89.8476 41.7655C86.3409 41.7655 83.7449 39.146 83.7449 34.672C83.7449 30.1979 86.3409 27.5707 89.8476 27.5707ZM93.6125 34.672C93.6125 30.2056 91.4644 29.3402 89.8476 29.3402C88.2233 29.3402 86.0752 30.2056 86.0752 34.672C86.0752 39.146 88.2309 39.996 89.8476 39.996C91.4644 39.996 93.6125 39.146 93.6125 34.672Z" fill="white"/>
<path d="M102.205 33.5515C103.981 33.5515 104.884 33.1729 105.469 30.6538C105.628 29.9352 105.788 29.0543 106.266 28.4902C106.85 27.7948 107.7 27.7561 108.118 27.7561C108.33 27.7561 108.543 27.787 108.763 27.8102V29.4175C108.626 29.3866 108.467 29.4175 108.338 29.4175C108.05 29.4484 107.731 29.4947 107.488 29.8116C107.245 30.1052 107.116 30.8006 107.063 31.0479L106.873 32.0061C106.577 33.5051 105.727 34.1774 104.831 34.3088V34.3629C106.129 34.4711 106.638 35.3597 106.957 36.2174C107.465 37.6315 107.7 38.7596 107.989 39.3546C108.224 39.8337 108.467 39.911 108.998 39.911C109.158 39.911 109.317 39.911 109.477 39.8878V41.5183C109.188 41.5723 108.892 41.5723 108.596 41.5723C106.425 41.5723 106.182 40.6142 105.681 38.976C105.15 37.2915 105.013 36.7506 104.778 36.3488C104.247 35.406 103.45 35.1974 102.364 35.1974H100.398V41.4873H98.3793V27.8411H100.398V33.5438H102.205V33.5515Z" fill="white"/>
<path d="M122.904 37.7783C122.532 38.9606 121.841 39.9496 120.703 40.7533C119.64 41.4719 118.524 41.7655 117.226 41.7655C115.314 41.7655 113.803 41.1242 112.634 39.7874C111.435 38.4196 110.995 36.6733 110.995 34.7801C110.995 31.1406 113.006 27.5707 117.279 27.5707C122.327 27.5707 123.147 32.2843 123.147 34.4788V34.9579H113.325C113.295 35.8697 113.454 36.8356 113.78 37.6083C114.441 39.2387 115.663 39.9883 117.302 39.9883C118.767 39.9883 119.64 39.3469 120.118 38.8137C120.49 38.4119 120.786 37.8478 120.946 37.3687L122.904 37.7783ZM120.809 33.3042C120.786 32.4697 120.566 31.4806 120.171 30.8084C119.746 30.1129 118.896 29.232 117.302 29.232C115.974 29.232 114.972 29.8734 114.357 30.6229C113.803 31.3493 113.454 32.3383 113.431 33.3042H120.809Z" fill="white"/>
<path d="M125.804 27.8488H127.663V30.422L127.686 30.3911C128.217 29.1007 129.493 27.5784 131.724 27.5784C133.394 27.5784 134.624 28.1966 135.466 29.1547C136.635 30.4684 137.166 32.6397 137.166 34.5947C137.166 36.4183 136.719 38.3965 135.732 39.741C135.018 40.7301 133.774 41.7733 131.724 41.7733C129.576 41.7733 128.46 40.6219 127.899 39.3701H127.823V45.9614H125.804V27.8488ZM127.823 36.086C127.823 36.7815 127.921 37.8787 128.771 38.8446C129.508 39.6715 130.494 39.996 131.345 39.996C132.119 39.996 133.235 39.6715 134.001 38.3887C134.639 37.3456 134.821 35.8388 134.821 34.6179C134.821 32.3461 134.267 31.2488 134.032 30.8702C133.288 29.6338 132.195 29.3402 131.375 29.3402C130.419 29.3402 129.622 29.6956 128.931 30.422C127.952 31.4884 127.823 32.5856 127.823 33.227V36.086Z" fill="white"/>
<path d="M40.6848 15.5162C37.8004 16.768 35.3867 17.5175 32.1379 18.522C28.1681 19.9052 24.5551 21.2729 22.5133 24.3947C21.9136 25.3915 21.4278 26.6433 21.1925 28.0188H20.9496C20.8358 27.0219 20.4714 25.8938 19.5074 24.7733C17.9438 22.6329 15.4086 21.7752 13.3668 21.2729L9.63228 20.1447C5.53343 18.9007 3.49161 17.6411 2.29231 16.8993C1.44218 16.3971 0.842539 16.0184 0 14.898V22.772C0 23.6452 0.242894 24.3947 0.721092 25.152C1.32074 25.6465 1.67749 26.0251 2.28472 26.396C3.48401 27.1456 5.53343 28.2738 9.63228 29.5256L13.3592 30.646C15.401 31.1483 17.9286 32.1451 19.4999 34.1464C20.4638 35.2669 20.8206 36.2714 20.9345 37.2682H21.1773C21.4126 35.9005 21.8984 34.7646 22.4981 33.7755C24.5399 30.646 28.153 29.2783 32.1228 27.9028C35.3791 26.906 37.7852 26.1565 40.6696 25.0206C42.6052 24.1552 45.1252 22.8956 45.1252 20.5234V12.6416C43.8121 14.0248 42.6128 14.7821 40.6848 15.5162ZM40.6848 3.39991C42.6204 2.52673 43.8196 1.7772 45.1328 0.525391V8.27577C45.1328 10.7717 42.6128 11.8998 40.6772 12.773C37.7928 14.0248 35.3867 14.7821 32.1304 15.7789C28.1606 17.0307 24.5475 18.4061 22.5057 21.5279C21.906 22.6406 21.4202 23.6529 21.1773 25.0206H20.9345C20.8206 24.0238 20.4563 23.1506 19.4923 21.8988C17.9286 19.9052 15.3934 19.0243 13.3516 18.4061L9.61709 17.278C5.51825 16.0261 3.47642 14.9057 2.27713 14.1562C1.6699 13.7775 1.31315 13.5303 0.713502 13.028C0.242894 12.1471 0 11.3976 0 10.5167V2.65037C0.842539 3.77081 1.44218 4.14945 2.28472 4.77535C3.48401 5.52489 5.52584 6.64533 9.62469 7.89714L13.3516 9.01758C15.3934 9.64348 17.921 10.5167 19.4923 12.518C20.4563 13.6384 20.813 14.8902 20.9269 15.8871H21.1698C21.4051 14.5193 21.8908 13.1362 22.4905 12.1394C24.5323 9.01758 28.1454 7.64214 32.1152 6.39033C35.3867 5.27762 37.7928 4.65171 40.6848 3.39991Z" fill="#CD2071"/>
</g>
<defs>
<clipPath id="clip0_2887_26446">
<rect width="184" height="46" fill="white"/>
</clipPath>
</defs>
</svg>
